<?xml version="1.0" standalone="no"?>
<!DOCTYPE svg PUBLIC "-//W3C//DTD SVG 20010904//EN"
 "http://www.w3.org/TR/2001/REC-SVG-20010904/DTD/svg10.dtd">
<svg version="1.0" xmlns="http://www.w3.org/2000/svg"
 width="1366.000000pt" height="768.000000pt" viewBox="0 0 1366.000000 768.000000"
 preserveAspectRatio="xMidYMid meet">

<g transform="translate(0.000000,768.000000) scale(0.100000,-0.100000)"
fill="#000000" stroke="none">
<path d="M5153 7530 c-12 -5 -26 -18 -32 -28 -10 -18 -571 -3124 -571 -3158 0
-84 56 209 294 1539 153 853 280 1565 283 1580 12 59 -48 57 1117 42 1050 -14
1070 -15 1090 -35 l20 -20 -198 -1212 c-108 -667 -200 -1223 -203 -1235 l-5
-22 -381 -3 c-417 -3 -420 -4 -456 -62 -17 -27 -49 -184 -132 -653 l-11 -63
-604 0 c-396 0 -604 -3 -604 -10 0 -7 207 -10 600 -10 432 0 600 -3 600 -11 0
-6 -18 -111 -41 -233 -48 -264 -50 -292 -19 -336 42 -59 51 -60 473 -60 l383
0 53 -145 c29 -80 58 -145 63 -145 11 0 8 12 -48 160 -24 63 -44 118 -44 123
0 4 128 7 283 7 l284 0 68 -145 c38 -80 72 -145 77 -145 12 0 13 -2 -57 145
-36 76 -65 139 -65 141 0 2 169 4 375 4 404 0 416 1 463 53 20 21 32 69 77
313 135 722 166 898 167 933 1 71 -33 111 -113 135 l-36 11 134 185 c74 102
139 190 146 197 9 9 32 -54 103 -289 50 -166 96 -304 101 -305 6 -2 86 124
178 279 545 919 518 876 526 843 4 -16 44 -231 90 -478 52 -280 87 -446 93
-444 14 4 724 1087 725 1105 1 6 -2 12 -6 12 -5 -1 -165 -243 -358 -539 -250
-385 -352 -534 -357 -522 -4 9 -45 222 -92 474 -46 253 -87 462 -91 465 -3 4
-10 0 -15 -8 -5 -8 -161 -270 -347 -582 -185 -313 -340 -565 -343 -560 -4 4
-43 130 -88 279 -95 314 -99 326 -111 319 -4 -3 -78 -102 -162 -221 l-154
-214 -647 -1 c-599 0 -648 1 -648 17 0 9 88 556 195 1215 107 659 195 1211
195 1226 0 17 -10 38 -24 51 l-23 22 -709 9 c-390 5 -873 11 -1074 14 -201 2
-375 1 -387 -4z m1537 -2733 c0 -14 -42 -306 -46 -319 -5 -16 -22 -18 -169
-18 -90 0 -166 3 -168 8 -3 4 4 34 14 67 44 141 195 262 332 264 20 1 37 0 37
-2z m165 -44 c139 -47 212 -218 160 -373 -18 -56 -98 -170 -117 -169 -11 0
-156 162 -196 218 -10 14 -8 45 9 167 11 82 22 155 24 162 6 17 62 15 120 -5z
m1275 -133 c0 -7 -143 -10 -410 -10 -267 0 -410 3 -410 10 0 7 143 10 410 10
267 0 410 -3 410 -10z m-30 -110 c-21 -13 -807 -13 -815 0 -4 7 136 10 412 10
274 0 413 -4 403 -10z m-1346 -207 l100 -116 -35 -29 c-84 -70 -244 -94 -340
-51 -90 41 -154 129 -166 232 -10 84 -16 81 174 81 l168 -1 99 -116z m1066 97
c0 -6 -102 -10 -285 -10 -183 0 -285 4 -285 10 0 6 102 10 285 10 183 0 285
-4 285 -10z m436 -552 c-3 -13 -12 -61 -21 -108 -8 -47 -23 -99 -32 -117 -33
-67 32 -64 -1155 -61 -1021 3 -1075 4 -1102 21 -49 32 -58 72 -40 174 9 48 17
94 19 101 4 9 246 12 1170 12 l1165 0 -4 -22z"/>
<path d="M6578 4766 c-100 -36 -181 -108 -224 -200 -41 -89 -45 -86 124 -86
l148 0 18 133 c9 72 20 140 22 150 4 13 -1 17 -23 17 -15 -1 -44 -7 -65 -14z"/>
<path d="M6733 4598 l-21 -152 91 -107 92 -107 22 20 c11 11 36 47 54 81 61
114 51 249 -25 335 -35 40 -117 82 -161 82 l-31 0 -21 -152z"/>
<path d="M6334 4348 c10 -76 50 -154 99 -189 57 -42 136 -63 203 -54 60 7 179
63 179 83 0 7 -38 58 -84 113 l-84 99 -160 0 -160 0 7 -52z"/>
<path d="M7017 3800 c-34 -27 -44 -78 -22 -119 28 -55 95 -67 144 -25 26 21
31 33 31 69 0 36 -5 48 -31 69 -37 32 -86 34 -122 6z m113 -20 c12 -12 20 -33
20 -55 0 -46 -29 -75 -74 -75 -39 0 -76 37 -76 75 0 12 9 34 21 49 26 33 79
36 109 6z"/>
<path d="M7880 7397 c-14 -7 -30 -24 -36 -37 -20 -45 -80 -509 -68 -528 27
-42 17 -42 1017 -42 1040 0 1016 -1 1037 54 12 32 70 441 70 494 0 78 82 72
-1016 72 -769 0 -984 -3 -1004 -13z m1993 -27 c11 -16 8 -54 -23 -271 -32
-229 -38 -253 -59 -270 -23 -18 -55 -19 -1004 -17 -909 3 -981 4 -991 20 -7
13 -1 82 24 265 30 217 37 251 57 271 l22 22 980 0 c961 0 980 0 994 -20z"/>
<path d="M5287 7384 c-13 -13 -7 -52 8 -58 27 -10 46 5 43 33 -3 26 -35 41
-51 25z"/>
<path d="M5430 7375 c-19 -23 -8 -50 20 -50 19 0 26 6 28 24 5 35 -26 53 -48
26z"/>
<path d="M5562 7381 c-8 -4 -12 -19 -10 -32 2 -18 9 -24 28 -24 28 0 39 27 20
50 -14 17 -20 18 -38 6z"/>
<path d="M5160 7201 c0 -12 407 -21 968 -21 284 0 502 -4 502 -9 0 -5 -84
-489 -186 -1076 -102 -587 -183 -1070 -180 -1073 3 -3 9 -3 12 0 3 3 89 489
192 1079 l187 1074 273 -4 c195 -2 272 0 272 8 0 6 -10 13 -22 15 -42 9 -2018
16 -2018 7z"/>
<path d="M5235 7055 l-40 -34 37 -37 c21 -21 41 -35 44 -31 4 4 -5 21 -21 37
l-29 30 34 28 c18 16 29 31 24 35 -5 3 -28 -10 -49 -28z"/>
<path d="M5556 7082 c-3 -5 9 -19 25 -31 l31 -23 -36 -30 c-35 -28 -46 -48
-27 -48 5 0 28 17 52 39 l44 39 -25 21 c-37 31 -58 42 -64 33z"/>
<path d="M6746 7054 c-31 -30 -8 -69 36 -62 30 4 38 46 12 65 -23 17 -29 16
-48 -3z m44 -29 c0 -8 -6 -15 -14 -15 -17 0 -28 14 -19 24 12 12 33 6 33 -9z"/>
<path d="M6880 7030 c0 -6 39 -10 96 -10 61 0 93 4 89 10 -3 6 -46 10 -96 10
-53 0 -89 -4 -89 -10z"/>
<path d="M5325 7020 c3 -5 46 -10 95 -10 49 0 92 5 95 10 4 6 -30 10 -95 10
-65 0 -99 -4 -95 -10z"/>
<path d="M6707 6863 c-14 -13 -6 -53 12 -63 15 -7 24 -5 41 8 19 16 21 22 11
40 -11 21 -50 30 -64 15z m43 -28 c0 -8 -7 -15 -15 -15 -8 0 -15 7 -15 15 0 8
7 15 15 15 8 0 15 -7 15 -15z"/>
<path d="M6840 6830 c0 -6 38 -10 95 -10 57 0 95 4 95 10 0 6 -38 10 -95 10
-57 0 -95 -4 -95 -10z"/>
<path d="M5150 6780 c0 -7 162 -10 465 -10 303 0 465 3 465 10 0 7 -162 10
-465 10 -303 0 -465 -3 -465 -10z"/>
<path d="M2402 6692 c-15 -15 -32 -36 -37 -46 -6 -11 -24 -20 -40 -21 -17 -1
-33 -3 -37 -3 -14 -3 -38 -61 -38 -91 0 -24 -7 -34 -31 -46 -42 -22 -61 -70
-48 -122 9 -34 8 -46 -10 -79 -28 -51 -26 -75 5 -105 14 -13 32 -40 40 -59 21
-49 42 -69 80 -76 79 -15 110 23 54 64 -57 42 -23 132 50 132 30 0 80 37 80
59 0 5 16 18 35 30 19 11 40 32 47 46 6 14 17 25 25 25 8 0 25 11 38 24 22 22
28 23 60 13 32 -9 42 -7 89 16 66 33 79 49 78 89 -1 41 -37 78 -76 78 -20 0
-46 12 -74 35 -55 43 -76 50 -112 35 -25 -11 -33 -9 -56 9 -39 31 -89 28 -122
-7z"/>
<path d="M6681 6656 c-7 -8 -10 -24 -6 -35 14 -45 79 -30 73 17 -2 21 -9 28
-29 30 -14 2 -31 -4 -38 -12z m49 -21 c0 -8 -6 -15 -14 -15 -17 0 -28 14 -19
24 12 12 33 6 33 -9z"/>
<path d="M6815 6640 c-3 -5 0 -13 8 -16 23 -9 177 0 180 11 3 14 -179 19 -188
5z"/>
<path d="M5117 6624 c-20 -20 4 -24 126 -22 170 4 173 22 4 26 -68 1 -126 -1
-130 -4z"/>
<path d="M5520 6620 c0 -6 93 -10 260 -10 167 0 260 4 260 10 0 6 -93 10 -260
10 -167 0 -260 -4 -260 -10z"/>
<path d="M5330 6443 c0 -14 13 -15 128 -10 70 4 187 7 260 7 86 0 131 4 127
10 -4 6 -102 10 -261 10 -230 0 -254 -2 -254 -17z"/>
<path d="M8169 6455 c-4 -5 -9 -38 -13 -72 -8 -69 7 -88 18 -23 l6 40 1278 0
1278 0 -4 -42 c-6 -69 15 -32 23 40 5 42 4 62 -4 62 -6 0 -11 -9 -11 -20 0
-20 -10 -20 -1279 -20 l-1280 0 -3 22 c-2 13 -6 19 -9 13z"/>
<path d="M6649 6429 c-9 -18 -7 -25 9 -41 16 -16 23 -18 41 -9 25 14 28 56 5
65 -28 11 -43 6 -55 -15z m51 -14 c0 -8 -7 -15 -15 -15 -8 0 -15 7 -15 15 0 8
7 15 15 15 8 0 15 -7 15 -15z"/>
<path d="M6790 6410 c0 -6 38 -10 95 -10 57 0 95 4 95 10 0 6 -38 10 -95 10
-57 0 -95 -4 -95 -10z"/>
<path d="M5493 6273 c-106 -2 -173 -7 -173 -13 0 -7 92 -9 258 -8 165 2 256 7
255 13 -3 11 -75 13 -340 8z"/>
<path d="M6609 6219 c-10 -20 -9 -25 11 -41 30 -24 63 -8 58 30 -4 37 -51 44
-69 11z m51 -14 c0 -8 -7 -15 -15 -15 -8 0 -15 7 -15 15 0 8 7 15 15 15 8 0
15 -7 15 -15z"/>
<path d="M10830 6230 c0 -5 14 -10 31 -10 27 0 31 -3 26 -22 -3 -13 -76 -503
-164 -1090 l-158 -1068 -32 0 c-18 0 -33 -4 -33 -10 0 -6 32 -10 75 -10 43 0
75 4 75 10 0 6 -13 10 -30 10 -23 0 -30 4 -30 20 0 19 305 2081 316 2133 5 23
11 27 40 27 19 0 34 5 34 10 0 6 -32 10 -75 10 -43 0 -75 -4 -75 -10z"/>
<path d="M6745 6200 c3 -5 46 -10 95 -10 49 0 92 5 95 10 4 6 -30 10 -95 10
-65 0 -99 -4 -95 -10z"/>
<path d="M5358 6113 c-75 -2 -128 -8 -128 -13 0 -7 98 -9 273 -8 175 2 271 7
270 13 -3 10 -181 14 -415 8z"/>
<path d="M5890 6110 c0 -6 54 -10 141 -10 91 0 138 4 134 10 -4 6 -62 10 -141
10 -83 0 -134 -4 -134 -10z"/>
<path d="M6574 6036 c-9 -23 -1 -48 19 -60 26 -16 62 27 47 55 -13 22 -58 26
-66 5z m46 -21 c0 -8 -7 -15 -15 -15 -8 0 -15 7 -15 15 0 8 7 15 15 15 8 0 15
-7 15 -15z"/>
<path d="M6710 6010 c0 -6 38 -10 95 -10 57 0 95 4 95 10 0 6 -38 10 -95 10
-57 0 -95 -4 -95 -10z"/>
<path d="M5050 5940 c0 -7 160 -10 459 -10 296 0 462 4 466 10 4 7 -152 10
-459 10 -304 0 -466 -3 -466 -10z"/>
<path d="M5306 5697 c-47 -75 -52 -87 -38 -87 8 0 102 142 102 154 0 22 -25
-4 -64 -67z"/>
<path d="M4975 5718 l-36 -31 37 -38 c21 -21 41 -36 46 -32 6 3 -5 20 -22 38
l-32 33 31 23 c31 23 40 39 21 39 -5 0 -25 -14 -45 -32z"/>
<path d="M5425 5720 l29 -30 -39 -33 c-25 -22 -35 -36 -27 -41 13 -8 92 60 92
78 0 14 -54 56 -71 56 -7 0 0 -13 16 -30z"/>
<path d="M5070 5690 c0 -6 33 -10 80 -10 47 0 80 4 80 10 0 6 -33 10 -80 10
-47 0 -80 -4 -80 -10z"/>
<path d="M3172 5441 c-244 -6 -254 -7 -271 -28 -12 -14 -23 -63 -35 -150 -10
-70 -20 -137 -23 -148 -5 -17 -4 -18 9 -7 10 8 21 57 33 145 10 72 23 138 30
145 9 10 115 16 455 24 512 12 473 19 457 -84 -8 -49 -17 -71 -43 -100 -29
-32 -54 -90 -54 -124 0 -7 -16 -24 -36 -39 -89 -68 -94 -128 -24 -278 12 -26
21 -49 19 -52 -8 -8 -847 -68 -864 -61 -15 5 -17 14 -12 57 5 44 4 49 -8 39
-21 -17 -20 -94 1 -111 14 -11 87 -8 456 20 l440 34 45 -52 c24 -28 64 -63 88
-76 41 -25 43 -28 50 -85 l7 -58 71 -7 c40 -4 88 -5 107 -3 38 3 37 -1 24 91
l-7 47 31 0 c46 0 83 17 125 58 47 45 74 96 83 154 4 23 16 53 28 66 29 33 28
93 -3 126 -14 14 -30 26 -36 26 -6 0 -19 25 -29 55 l-17 56 25 30 c52 61 46
137 -14 177 -45 31 -108 26 -235 -16 -49 -17 -116 -33 -147 -37 -66 -7 -64
-11 -47 79 9 50 8 60 -7 77 -16 18 -32 19 -218 17 -111 -1 -315 -4 -454 -7z
m1098 -385 c11 -41 10 -47 -9 -72 -11 -15 -21 -32 -21 -38 0 -10 -159 -70
-167 -63 -1 2 0 33 4 70 6 66 6 67 42 78 20 7 56 25 81 40 25 16 48 29 51 29
4 0 12 -20 19 -44z m73 -98 c17 -22 18 -33 11 -60 -18 -63 -94 -39 -94 30 0
63 46 80 83 30z m-92 -72 c6 -13 22 -30 36 -37 23 -12 25 -18 19 -59 -8 -61
-65 -144 -116 -170 -21 -11 -58 -22 -82 -24 -35 -3 -43 -8 -41 -23 1 -10 5
-39 9 -65 l7 -48 -64 0 c-96 0 -106 5 -113 53 -6 37 -4 43 23 64 28 22 52 72
65 136 6 24 2 29 -34 43 -43 17 -60 39 -60 74 0 32 25 34 53 6 31 -31 71 -34
90 -7 12 18 152 78 185 80 7 1 17 -10 23 -23z"/>
<path d="M5358 5423 c-101 -2 -168 -7 -168 -13 0 -6 104 -10 278 -10 341 0
652 10 652 22 0 7 -357 8 -762 1z"/>
<path d="M3265 5368 c-228 -7 -292 -12 -301 -23 -11 -15 -38 -195 -29 -203 10
-11 15 7 28 99 l12 94 140 7 c77 4 256 10 398 14 141 3 257 10 257 15 0 10
-91 10 -505 -3z"/>
<path d="M5067 5283 c-20 -2 -35 -8 -32 -14 7 -10 372 -12 477 -3 37 4 65 11
62 15 -5 9 -430 10 -507 2z"/>
<path d="M5685 5280 c-4 -6 45 -10 140 -10 95 0 144 4 140 10 -4 6 -62 10
-140 10 -78 0 -136 -4 -140 -10z"/>
<path d="M2226 5172 c-10 -113 -7 -267 6 -280 7 -7 23 -12 38 -12 33 1 339
122 338 135 0 13 3 14 -180 -57 -94 -36 -163 -58 -174 -54 -15 6 -16 21 -10
165 4 93 3 162 -2 165 -5 3 -12 -25 -16 -62z"/>
<path d="M11185 5175 c-27 -7 -58 -12 -68 -9 -27 8 -121 -23 -144 -48 -67 -72
-100 -234 -89 -445 9 -179 33 -203 205 -203 l101 0 0 30 0 30 -60 0 c-102 0
-160 47 -181 147 -11 54 -7 180 6 214 4 11 109 72 165 97 4 1 12 -9 18 -23 33
-71 209 -215 264 -215 61 0 98 -46 76 -94 -9 -22 -64 -56 -110 -70 -14 -4 -18
-17 -18 -61 l0 -55 76 0 c92 0 139 19 161 66 14 29 15 56 5 221 -12 215 -26
272 -83 337 -69 79 -211 114 -324 81z"/>
<path d="M3313 5166 c-67 -30 -93 -126 -53 -191 41 -66 116 -70 169 -9 36 41
46 72 38 122 -12 71 -86 108 -154 78z m108 -35 c69 -70 -1 -209 -94 -186 -78
20 -94 132 -26 189 41 35 83 34 120 -3z"/>
<path d="M5483 5143 c-197 -2 -313 -7 -313 -13 0 -6 166 -10 465 -10 407 0
465 2 465 15 0 13 -23 15 -152 13 -84 -2 -294 -4 -465 -5z"/>
<path d="M5155 5021 c-3 -5 -1 -12 4 -16 15 -9 931 7 925 17 -7 11 -921 10
-929 -1z"/>
<path d="M2887 4823 c-8 -13 -12 -82 -5 -89 7 -6 12 12 21 69 4 25 -6 37 -16
20z"/>
<path d="M2440 4530 c-235 -141 -292 -180 -263 -180 16 0 536 315 541 328 2 6
0 12 -5 11 -4 0 -127 -72 -273 -159z"/>
<path d="M3204 4199 c-55 -16 -126 -71 -151 -118 -18 -35 -23 -60 -23 -121 l0
-77 -97 -17 c-298 -53 -638 -43 -903 29 -35 9 -56 11 -61 4 -11 -18 -43 -683
-60 -1239 -13 -436 -7 -1393 10 -1595 16 -190 49 -410 70 -473 17 -49 17 -59
5 -95 -20 -55 -18 -76 9 -87 25 -11 241 -43 433 -65 135 -15 211 -12 241 10
17 13 17 14 -1 34 -19 21 -19 21 10 16 123 -21 406 -55 461 -54 78 0 131 16
147 43 9 15 6 22 -18 40 -16 11 -73 55 -127 98 l-97 76 10 39 c5 21 51 369
103 773 52 404 98 752 101 772 l6 37 30 -34 c17 -20 51 -42 79 -52 l49 -18 0
-897 c0 -592 3 -898 10 -898 7 0 10 307 10 900 l0 900 243 0 c133 0 320 -3
415 -7 l172 -6 0 -774 0 -775 -57 4 -58 3 -7 -45 c-10 -70 -9 -168 2 -175 6
-4 35 -9 65 -12 45 -5 55 -9 55 -24 0 -11 5 -19 10 -19 6 0 10 8 10 18 0 15
16 17 178 19 97 1 206 5 242 10 36 4 110 5 165 1 55 -4 191 -8 302 -10 183 -3
204 -1 220 15 37 37 -8 66 -181 116 -60 18 -135 44 -165 59 l-56 27 2 95 c4
168 67 348 167 479 59 77 118 200 144 301 l20 75 -22 7 c-11 4 -115 23 -231
43 -115 19 -221 38 -234 41 l-24 5 6 -125 c4 -69 16 -169 27 -223 25 -126 42
-441 30 -586 -7 -87 -14 -116 -36 -157 -39 -71 -44 -74 -99 -56 -34 12 -198
46 -220 46 -1 0 -7 25 -14 56 -10 45 -16 54 -29 49 -40 -15 -129 -35 -159 -35
l-33 0 0 775 0 775 295 0 c245 0 301 3 325 15 30 15 45 48 38 82 -3 17 -21 18
-276 21 l-272 2 0 49 c0 26 -5 171 -10 322 -6 151 -15 418 -20 594 -12 391
-30 541 -82 705 -45 141 -118 241 -188 260 -19 5 -190 14 -380 19 -190 6 -379
13 -420 15 -41 2 -89 0 -106 -5z m687 -36 l117 -6 -27 -51 c-24 -47 -26 -58
-25 -181 2 -139 -12 -56 228 -1349 36 -192 70 -354 76 -360 5 -5 10 -7 10 -3
0 7 -154 843 -261 1417 -39 209 -46 398 -17 462 24 55 59 74 107 59 71 -21
139 -118 179 -256 56 -192 70 -314 82 -720 14 -517 31 -949 36 -957 3 -4 126
-8 275 -8 291 0 302 -2 242 -51 l-28 -22 -739 6 -739 6 -46 23 c-83 41 -75 8
-186 778 -120 830 -141 1036 -114 1107 15 39 57 82 104 105 38 18 57 19 325
13 157 -3 337 -8 401 -12z m-1770 -308 c231 -49 474 -58 710 -26 79 11 158 23
175 26 l31 7 7 -74 c11 -111 99 -748 159 -1153 l54 -360 -99 -760 c-82 -631
-102 -762 -116 -773 -47 -35 -265 -67 -379 -56 -35 4 -63 7 -63 8 -1 0 -18
212 -39 471 l-37 470 133 935 c73 514 133 943 133 953 0 9 -3 17 -8 17 -9 0
-273 -1857 -342 -2410 -28 -223 -53 -415 -55 -427 -4 -15 -21 -28 -63 -44 -48
-19 -76 -23 -172 -23 -68 0 -124 5 -136 12 -26 14 -37 67 -59 272 -48 455 -48
1409 0 2425 23 483 27 535 39 535 6 0 63 -11 127 -25z m433 -2853 c31 -389 36
-489 26 -512 l-12 -28 -81 51 c-45 28 -86 54 -90 58 -5 4 17 214 49 468 32
253 61 457 65 453 3 -4 23 -224 43 -490z m486 -362 c-26 -49 -155 -79 -331
-80 l-96 0 -7 38 c-12 77 -16 73 82 66 93 -6 262 14 324 39 33 13 33 13 36
-14 2 -16 -2 -38 -8 -49z m-660 11 c0 -50 -15 -74 -58 -93 -38 -17 -62 -20
-164 -17 -104 4 -121 6 -134 23 -8 11 -14 27 -14 36 0 14 16 16 123 16 100 0
132 3 177 20 66 26 70 26 70 15z m2125 -122 c12 -49 2 -44 157 -73 43 -8 90
-21 105 -28 33 -16 41 -43 16 -53 -44 -17 -411 -32 -461 -19 -22 6 -23 10 -20
98 l3 91 60 7 c33 3 71 11 85 17 36 14 43 9 55 -40z m-241 15 c13 -5 16 -23
16 -95 l0 -89 -32 0 c-64 0 -78 9 -78 49 0 20 3 60 6 89 7 51 7 52 40 52 18 0
39 -3 48 -6z"/>
<path d="M10208 3723 c-205 -3 -268 -6 -268 -16 1 -6 13 -43 28 -82 l28 -70
229 -1 c148 -1 240 -5 259 -13 27 -11 28 -10 22 13 -3 13 -9 31 -12 40 -9 23
34 21 71 -4 39 -26 45 -25 45 5 0 39 34 32 88 -18 l47 -44 215 8 c118 4 225 8
236 8 12 1 24 7 27 14 3 6 21 47 41 90 l35 77 -412 -2 c-226 -2 -532 -4 -679
-5z m1029 -82 l-32 -68 -70 -6 c-38 -4 -141 -7 -228 -8 l-158 -1 -44 41 c-49
45 -96 55 -113 24 -8 -14 -14 -15 -40 -4 -17 7 -41 11 -54 9 -19 -2 -23 -8
-22 -35 1 -22 -2 -31 -9 -26 -7 4 -111 6 -233 4 l-221 -2 -26 63 -25 63 222 5
c121 3 415 7 653 8 l432 2 -32 -69z"/>
<path d="M8350 3535 c0 -25 5 -45 10 -45 6 0 10 -18 10 -40 0 -35 -3 -40 -23
-40 -13 0 -26 -2 -29 -5 -4 -5 4 -89 17 -162 4 -20 12 -33 20 -33 11 0 15 -12
15 -45 l0 -45 -65 0 c-62 0 -65 1 -65 24 0 38 -10 56 -41 71 -24 13 -183 15
-1138 15 -713 0 -1112 3 -1116 10 -3 5 -1 19 5 30 15 28 -13 53 -89 80 -34 13
-61 29 -61 36 0 16 -51 44 -81 44 -28 0 -180 -51 -262 -88 l-64 -30 43 -86
c24 -48 49 -105 55 -126 14 -45 22 -48 64 -20 30 20 50 20 1628 20 1024 0
1605 -4 1617 -10 25 -13 41 -65 30 -94 -5 -13 -19 -31 -32 -40 -20 -15 -182
-16 -1745 -16 -1137 0 -1724 -3 -1728 -10 -4 -7 518 -10 1559 -10 l1565 0 5
-42 c3 -24 49 -590 102 -1258 52 -668 98 -1222 101 -1230 5 -13 7 -13 10 1 3
14 -178 2347 -193 2477 l-5 52 146 0 c197 0 235 17 235 105 0 27 -8 44 -29 66
-27 27 -35 29 -105 29 l-76 0 0 41 c0 22 6 47 14 54 7 8 16 47 20 87 4 40 9
81 12 91 4 13 -1 17 -21 17 l-27 0 7 85 7 85 -151 0 -151 0 0 -45z m280 0 l0
-25 -130 0 -130 0 0 25 0 25 130 0 130 0 0 -25z m-20 -85 l0 -40 -110 0 -110
0 0 40 0 40 110 0 110 0 0 -40z m-2844 -54 c25 -19 14 -28 -58 -50 -32 -9 -58
-21 -58 -27 0 -13 8 -12 73 11 31 11 63 20 71 20 29 0 127 -42 133 -57 9 -22
-15 -32 -51 -22 -17 5 -45 9 -62 9 -33 0 -119 -24 -144 -39 -30 -20 -2 -20 53
-1 83 29 166 23 207 -17 13 -13 13 -16 -4 -29 -28 -20 -63 -18 -103 7 -47 29
-76 21 -194 -52 -91 -56 -119 -65 -119 -37 0 8 -66 151 -87 189 -4 7 127 64
207 90 68 22 110 23 136 5z m2889 -78 c-4 -40 -9 -76 -12 -80 -2 -5 -67 -8
-143 -8 -76 0 -141 3 -143 8 -3 4 -8 40 -12 80 l-7 72 162 0 162 0 -7 -72z
m-455 -128 c11 -11 20 -31 20 -45 l0 -25 -1191 0 c-1128 0 -1190 1 -1187 18 2
12 16 19 46 23 25 3 52 15 65 27 l21 22 1103 0 c1090 0 1103 0 1123 -20z m410
-20 l0 -41 -107 3 -108 3 -3 38 -3 37 110 0 111 0 0 -40z m-2802 13 c16 -14
18 -23 12 -40 -9 -22 -15 -23 -102 -23 l-93 0 38 26 c41 27 95 53 113 54 7 0
21 -8 32 -17z"/>
<path d="M11495 3232 c-109 -16 -546 -23 -646 -10 -54 7 -57 7 -62 -15 -17
-64 -58 -499 -67 -696 -13 -284 -30 -1168 -30 -1528 l0 -272 33 -25 c43 -33
164 -80 261 -101 163 -36 379 -7 565 75 73 32 80 43 100 165 36 226 58 994 42
1485 -11 339 -66 931 -86 935 -6 2 -55 -4 -110 -13z m135 -322 c43 -407 53
-648 45 -1120 -8 -563 -28 -921 -57 -1038 -12 -49 -30 -61 -168 -110 -169 -59
-366 -70 -516 -27 -115 33 -213 81 -223 108 -18 52 19 1785 44 2057 20 213 45
414 53 421 4 3 52 2 107 -3 117 -11 451 -2 580 16 50 6 93 9 96 6 4 -3 21
-142 39 -310z"/>
<path d="M4695 3110 c3 -5 24 -10 46 -10 21 0 39 5 39 10 0 6 -21 10 -46 10
-27 0 -43 -4 -39 -10z"/>
<path d="M4735 2930 c3 -5 31 -10 61 -10 30 0 54 5 54 10 0 6 -27 10 -61 10
-37 0 -58 -4 -54 -10z"/>
<path d="M9375 2785 c-22 -13 -50 -39 -63 -58 -31 -47 -55 -168 -47 -239 7
-54 5 -60 -24 -97 -76 -95 -95 -216 -54 -332 l20 -55 -23 -27 c-13 -15 -28
-46 -35 -70 -12 -44 -6 -136 11 -167 9 -16 7 -16 -28 -5 -41 14 -42 17 -66
139 -28 139 -94 256 -171 301 -48 29 -120 33 -163 11 -62 -33 -131 -136 -132
-197 0 -41 46 -122 111 -193 l60 -66 -25 -64 c-52 -130 -45 -197 29 -265 42
-38 120 -71 170 -71 54 0 82 -20 115 -82 18 -34 53 -81 76 -105 l43 -43 -114
0 c-62 0 -116 -3 -118 -7 -3 -5 36 -189 86 -410 l91 -403 248 0 248 0 5 23
c30 122 175 773 175 784 0 10 -26 13 -117 13 l-117 0 45 28 c52 34 120 106
145 153 10 19 25 58 34 88 17 52 19 55 63 66 25 6 64 24 86 38 63 42 146 130
171 182 31 63 31 158 0 238 l-22 58 35 67 c90 172 91 342 1 425 -78 73 -236
48 -310 -49 -39 -50 -64 -143 -64 -237 l-1 -82 -53 -37 c-67 -47 -123 -128
-147 -215 -22 -77 -24 -154 -8 -273 l11 -84 -32 -29 c-17 -15 -34 -27 -36 -24
-2 2 6 26 18 53 28 64 28 151 -1 222 -11 29 -21 72 -21 96 0 37 7 53 43 96
151 187 167 242 96 340 l-30 42 19 41 c62 133 55 353 -14 445 -51 66 -145 83
-219 37z m171 -20 c90 -59 110 -309 37 -463 l-25 -54 30 -31 c39 -42 55 -92
42 -136 -11 -39 -62 -120 -92 -147 -11 -10 -34 -37 -49 -58 -36 -48 -39 -115
-9 -201 27 -77 25 -133 -5 -205 -27 -64 -31 -90 -15 -90 19 0 64 27 89 53 23
25 23 26 11 131 -28 237 19 376 160 467 l50 32 0 93 c0 197 80 303 231 304 98
0 156 -59 166 -169 7 -79 -10 -148 -64 -257 l-45 -91 22 -44 c32 -61 38 -155
15 -216 -20 -53 -116 -160 -179 -200 -21 -14 -59 -28 -84 -32 l-45 -6 -17 -61
c-31 -115 -104 -205 -209 -258 -47 -24 -60 -26 -186 -26 -92 0 -146 4 -168 14
-40 16 -94 77 -125 140 -28 55 -62 84 -111 91 -136 22 -194 54 -226 124 -17
38 -17 48 -6 104 7 33 24 83 37 110 l25 48 -67 71 c-37 40 -77 95 -91 126 -29
63 -25 94 25 173 48 76 132 100 211 60 72 -37 142 -162 168 -303 23 -128 25
-131 58 -138 67 -14 114 -69 129 -150 5 -31 -2 -90 -20 -172 -6 -24 -3 -28 33
-37 22 -6 48 -20 58 -31 l19 -21 14 27 c20 38 27 143 13 187 -7 20 -44 71 -82
113 -92 101 -103 123 -103 210 -1 67 1 75 33 114 33 41 33 43 18 75 -27 57
-40 151 -28 207 13 60 24 81 66 134 33 39 33 42 37 155 3 99 6 121 28 164 45
87 151 120 226 70z m-229 -1223 c22 -38 25 -51 21 -107 -3 -34 -8 -67 -11 -72
-4 -6 -25 -1 -51 11 -38 17 -43 23 -36 41 15 41 21 130 12 173 l-10 44 25 -24
c14 -12 36 -42 50 -66z m463 -469 c0 -5 -6 -30 -13 -58 l-13 -50 -381 -3 -381
-2 -11 44 c-21 83 -59 76 394 76 223 0 405 -3 405 -7z m-32 -145 c-3 -7 -36
-151 -74 -320 l-69 -308 -232 0 c-212 0 -232 1 -237 18 -10 34 -136 601 -136
611 0 8 115 11 376 11 297 0 375 -3 372 -12z"/>
<path d="M10730 138 c-115 -123 -115 -134 3 -125 86 7 334 59 347 74 9 9 32
145 26 151 -2 2 -29 -4 -60 -13 -69 -20 -157 -21 -195 -2 l-29 14 -92 -99z
m142 55 c50 -16 98 -13 187 13 23 7 23 6 16 -47 -4 -30 -10 -57 -14 -61 -11
-12 -301 -68 -352 -68 l-51 0 76 82 c42 46 76 86 76 90 0 11 4 10 62 -9z"/>
<path d="M11485 218 c-62 -21 -144 -23 -193 -3 l-36 16 -36 -43 c-19 -24 -58
-68 -87 -99 -29 -31 -53 -61 -53 -67 0 -33 103 -25 325 26 l119 27 13 75 c7
41 9 77 5 80 -4 3 -29 -2 -57 -12z m30 -72 c-7 -54 -9 -56 -44 -65 -99 -27
-298 -62 -335 -59 l-41 3 80 85 c57 60 86 84 100 82 82 -12 164 -12 200 1 22
8 41 13 43 12 2 -2 1 -28 -3 -59z"/>
</g>
</svg>
